<svg xmlns="http://www.w3.org/2000/svg" viewBox="0 0 120 120"><svg xmlns="http://www.w3.org/2000/svg" viewBox="0 0 512 512">

  <!-- Leneda Icon - Simplified -->  <rect width="512" height="512" fill="#1a1a2e" rx="64"/>

  <defs>  <g transform="translate(256,256)">

    <linearGradient id="iconGradient" x1="0%" y1="0%" x2="100%" y2="100%">    <!-- Lightning bolt -->

      <stop offset="0%" style="stop-color:#00b4d8;stop-opacity:1" />    <path fill="#00b4d8" d="M-60,-120 L20,-20 L-20,-20 L60,120 L-20,20 L20,20 Z"/>

      <stop offset="100%" style="stop-color:#06ffa5;stop-opacity:1" />    <!-- Energy waves -->

    </linearGradient>    <circle cx="0" cy="0" r="140" fill="none" stroke="#06ffa5" stroke-width="8" opacity="0.3"/>

  </defs>    <circle cx="0" cy="0" r="110" fill="none" stroke="#00b4d8" stroke-width="6" opacity="0.4"/>

      <circle cx="0" cy="0" r="80" fill="none" stroke="#0077b6" stroke-width="4" opacity="0.5"/>

  <!-- Background -->  </g>

  <rect width="120" height="120" rx="20" fill="#1a1a2e"/>  <!-- Text -->

    <text x="256" y="420" font-family="Arial, sans-serif" font-size="48" font-weight="bold" fill="#eaeaea" text-anchor="middle">LENEDA</text>

  <!-- Energy meter icon --></svg>

  <g transform="translate(60, 60)">
    <!-- Lightning bolt -->
    <path d="M -12,-35 L 8,-8 L -3,-8 L 12,35 L -8,4 L 3,4 Z" 
          fill="url(#iconGradient)" 
          stroke="#00b4d8" 
          stroke-width="1.5"/>
    
    <!-- Meter ring -->
    <circle cx="0" cy="0" r="28" fill="none" stroke="url(#iconGradient)" stroke-width="3" opacity="0.6"/>
    
    <!-- Data points -->
    <circle cx="-18" cy="-18" r="2.5" fill="#06ffa5"/>
    <circle cx="18" cy="-18" r="2.5" fill="#06ffa5"/>
    <circle cx="-18" cy="18" r="2.5" fill="#06ffa5"/>
    <circle cx="18" cy="18" r="2.5" fill="#06ffa5"/>
  </g>
</svg>