<svg xmlns="http://www.w3.org/2000/svg" viewBox="0 0 200 200"><svg xmlns="http://www.w3.org/2000/svg" viewBox="0 0 512 512">

  <!-- Leneda Logo - Energy Flow Design -->  <rect width="512" height="512" fill="#1a1a2e" rx="64"/>

  <defs>  <g transform="translate(256,256)">

    <linearGradient id="energyGradient" x1="0%" y1="0%" x2="100%" y2="100%">    <!-- Lightning bolt -->

      <stop offset="0%" style="stop-color:#00b4d8;stop-opacity:1" />    <path fill="#00b4d8" d="M-60,-120 L20,-20 L-20,-20 L60,120 L-20,20 L20,20 Z"/>

      <stop offset="100%" style="stop-color:#06ffa5;stop-opacity:1" />    <!-- Energy waves -->

    </linearGradient>    <circle cx="0" cy="0" r="140" fill="none" stroke="#06ffa5" stroke-width="8" opacity="0.3"/>

  </defs>    <circle cx="0" cy="0" r="110" fill="none" stroke="#00b4d8" stroke-width="6" opacity="0.4"/>

      <circle cx="0" cy="0" r="80" fill="none" stroke="#0077b6" stroke-width="4" opacity="0.5"/>

  <!-- Background Circle -->  </g>

  <circle cx="100" cy="100" r="95" fill="#1a1a2e" stroke="url(#energyGradient)" stroke-width="3"/>  <!-- Text -->

    <text x="256" y="420" font-family="Arial, sans-serif" font-size="48" font-weight="bold" fill="#eaeaea" text-anchor="middle">LENEDA</text>

  <!-- Energy Symbol - Lightning bolt with meter --></svg>

  <g transform="translate(100, 100)">
    <!-- Lightning bolt -->
    <path d="M -15,-40 L 10,-10 L -5,-10 L 15,40 L -10,5 L 5,5 Z" 
          fill="url(#energyGradient)" 
          stroke="#00b4d8" 
          stroke-width="1.5"/>
    
    <!-- Meter circle overlay -->
    <circle cx="0" cy="0" r="30" fill="none" stroke="url(#energyGradient)" stroke-width="2.5" opacity="0.7"/>
    
    <!-- Data points (representing 15-min intervals) -->
    <circle cx="-20" cy="-20" r="3" fill="#06ffa5" opacity="0.8"/>
    <circle cx="20" cy="-20" r="3" fill="#06ffa5" opacity="0.8"/>
    <circle cx="-20" cy="20" r="3" fill="#06ffa5" opacity="0.8"/>
    <circle cx="20" cy="20" r="3" fill="#06ffa5" opacity="0.8"/>
  </g>
  
  <!-- Text -->
  <text x="100" y="170" text-anchor="middle" font-family="Arial, sans-serif" font-size="24" font-weight="bold" fill="url(#energyGradient)">Leneda</text>
  <text x="100" y="188" text-anchor="middle" font-family="Arial, sans-serif" font-size="10" fill="#eaeaea" opacity="0.7">Energy Dashboard</text>
</svg>